<svg xmlns="http://www.w3.org/2000/svg" fill="none" viewBox="0 0 71 71"><circle cx="35.5" cy="35.5" r="35.5" fill="#000" fill-opacity=".35"/><path fill="#fff" d="M43.566 34.447L31.446 22.43A1.485 1.485 0 0 0 30.392 22c-.399 0-.773.153-1.053.431l-.893.885a1.47 1.47 0 0 0 0 2.089l10.178 10.09-10.189 10.1A1.46 1.46 0 0 0 28 46.64c0 .396.155.767.435 1.045l.893.885c.28.278.654.431 1.053.431.4 0 .773-.153 1.054-.431l12.13-12.026c.282-.28.436-.652.435-1.048 0-.398-.153-.77-.434-1.048z"/><path stroke="#000" stroke-opacity=".14" stroke-width="2" d="M45 35.495c0-.663-.26-1.291-.73-1.758h0L32.15 21.72s0 0 0 0A2.485 2.485 0 0 0 30.392 21c-.66 0-1.287.255-1.757.721 0 0 0 0 0 0s0 0 0 0l-.893.885h0a2.47 2.47 0 0 0 0 3.509s0 0 0 0l9.461 9.38-9.472 9.39h0A2.46 2.46 0 0 0 27 46.64c0 .663.261 1.29.73 1.755h.001l.893.885s0 0 0 0c.47.466 1.097.721 1.757.721.66 0 1.288-.255 1.758-.721l12.13-12.026h.001c.47-.468.73-1.096.73-1.758zm0 0v.002l-1-.002 1-.002v.002z"/></svg>